<svg width="88" height="166" viewBox="0 0 88 166" fill="none" xmlns="http://www.w3.org/2000/svg">
<path d="M52.6098 131.081H35.0599V68.0769H52.6098V131.081ZM55.5933 64.8464H31.8804V134.119H55.5933V64.8464ZM58.7633 137.346H28.9119V61.616H58.7633V137.346ZM81.1396 143.14V56.4957L64.7552 39.6191H22.5321L6.15351 56.4957V142.93L22.4467 159.543H64.8467L81.1396 143.14ZM84.1173 144.327L65.8049 162.569H21.4787L3.16996 144.327V54.6388L20.7066 36.3925H66.5751L84.1173 54.6388V144.327ZM87.2912 146.18V52.9783L67.5412 33.1582H19.7463L0 52.9783V145.306L19.8775 165.913H67.6362L87.2912 146.18Z" fill="black"/>
<path d="M33.1268 5.55363H13.4244V21.9756H33.1268V5.55363ZM73.2355 5.55363H53.533V21.9756H73.2355V5.55363ZM36.1219 24.8343H10.2259V2.86061H36.1219V24.8343ZM76.4321 24.8343H50.536V2.86061H76.4321V24.8343ZM39.3184 0H7.02734V27.6891H39.3184V0ZM79.6285 0H47.3317V27.6891H79.6285V0Z" fill="black"/>
</svg>
